<svg width="286" height="306" viewBox="0 0 286 306" fill="none" xmlns="http://www.w3.org/2000/svg">
<g opacity="0.7">
<path d="M193.708 250.648C250.716 224.303 281.819 169.906 263.177 129.149C244.536 88.3919 183.21 76.7088 126.203 103.054C69.1946 129.399 38.0922 183.796 56.7333 224.553C75.3745 265.31 136.7 276.993 193.708 250.648Z" stroke="#B09F85" stroke-opacity="0.7" stroke-miterlimit="10"/>
<path d="M74.6446 256.593C80.9684 254.898 84.7049 248.337 82.9903 241.938C81.2756 235.539 74.7592 231.725 68.4354 233.42C62.1116 235.114 58.3751 241.675 60.0898 248.074C61.8044 254.473 68.3208 258.287 74.6446 256.593Z" fill="#B09F85" fill-opacity="0.7"/>
<path d="M176.803 183.637C226.502 154.972 251.633 104.852 232.934 71.6915C214.236 38.5308 158.789 34.8864 109.09 63.5516C59.3916 92.2168 34.261 142.337 52.9594 175.497C71.6577 208.658 127.104 212.302 176.803 183.637Z" stroke="#B09F85" stroke-opacity="0.7" stroke-miterlimit="10"/>
<path d="M202.518 54.5167C205.932 53.602 207.949 50.06 207.023 46.6056C206.097 43.1511 202.58 41.0922 199.166 42.0069C195.752 42.9217 193.735 46.4636 194.66 49.9181C195.586 53.3726 199.104 55.4315 202.518 54.5167Z" fill="#B09F85" fill-opacity="0.7"/>
</g>
</svg>
