<svg width="30" height="30" viewBox="0 0 30 30" fill="none" xmlns="http://www.w3.org/2000/svg">
<path d="M30 15C30 12.0333 29.1203 9.13319 27.472 6.66645C25.8238 4.19972 23.4811 2.27713 20.7403 1.14181C17.9994 0.00649903 14.9834 -0.290551 12.0736 0.288228C9.16393 0.867006 6.49119 2.29562 4.3934 4.3934C2.29562 6.49119 0.867006 9.16393 0.288228 12.0736C-0.290551 14.9834 0.00649903 17.9994 1.14181 20.7403C2.27713 23.4811 4.19972 25.8238 6.66645 27.472C9.13319 29.1203 12.0333 30 15 30C18.9758 29.9921 22.7865 28.4092 25.5978 25.5978C28.4092 22.7865 29.9921 18.9758 30 15ZM15.6 28.785V18H19.8C19.9591 18 20.1117 17.9368 20.2243 17.8243C20.3368 17.7117 20.4 17.5591 20.4 17.4C20.4 17.2409 20.3368 17.0883 20.2243 16.9757C20.1117 16.8632 19.9591 16.8 19.8 16.8H15.6V12.6C15.6039 11.8056 15.9213 11.0448 16.483 10.483C17.0448 9.92128 17.8056 9.60395 18.6 9.6H21C21.1591 9.6 21.3117 9.53679 21.4243 9.42427C21.5368 9.31175 21.6 9.15913 21.6 9C21.6 8.84087 21.5368 8.68826 21.4243 8.57574C21.3117 8.46322 21.1591 8.4 21 8.4H18.6C17.4873 8.40396 16.4213 8.84773 15.6345 9.63452C14.8477 10.4213 14.404 11.4873 14.4 12.6V16.8H10.2C10.0409 16.8 9.88826 16.8632 9.77574 16.9757C9.66322 17.0883 9.6 17.2409 9.6 17.4C9.6 17.5591 9.66322 17.7117 9.77574 17.8243C9.88826 17.9368 10.0409 18 10.2 18H14.4V28.785C10.7954 28.6281 7.39557 27.0658 4.92888 24.4327C2.46219 21.7996 1.12482 18.3051 1.20327 14.698C1.28172 11.0908 2.76976 7.65783 5.34861 5.13446C7.92745 2.6111 11.392 1.19806 15 1.19806C18.608 1.19806 22.0726 2.6111 24.6514 5.13446C27.2302 7.65783 28.7183 11.0908 28.7967 14.698C28.8752 18.3051 27.5378 21.7996 25.0711 24.4327C22.6044 27.0658 19.2046 28.6281 15.6 28.785Z" fill="#342C41"/>
</svg>
