<svg width="572" height="601" viewBox="0 0 572 601" fill="none" xmlns="http://www.w3.org/2000/svg">
<g opacity="0.7">
<path d="M180.281 394.298C269.68 483.245 372.67 525.004 410.315 487.57C447.959 450.136 406.004 347.684 316.605 258.737C227.206 169.79 124.216 128.031 86.571 165.465C48.9261 202.899 90.8813 305.35 180.281 394.298Z" stroke="#B09F85" stroke-opacity="0.7" stroke-miterlimit="10"/>
<path d="M57.7149 199.08C64.8274 209.125 78.8686 211.408 89.0767 204.18C99.2848 196.952 101.794 182.95 94.6818 172.905C87.5693 162.86 73.5282 160.576 63.32 167.804C53.1119 175.032 50.6024 189.035 57.7149 199.08Z" fill="#B09F85" fill-opacity="0.7"/>
<path d="M299.035 363.907C377.631 403.312 456.435 406.129 475.049 370.199C493.663 334.269 445.038 273.198 366.442 233.793C287.846 194.388 209.042 191.571 190.428 227.501C171.814 263.431 220.439 324.502 299.035 363.907Z" stroke="#B09F85" stroke-opacity="0.7" stroke-miterlimit="10"/>
<path d="M460.304 341.922C464.753 348.206 473.538 349.635 479.924 345.113C486.31 340.591 487.88 331.831 483.431 325.546C478.981 319.262 470.197 317.833 463.81 322.355C457.424 326.877 455.854 335.638 460.304 341.922Z" fill="#B09F85" fill-opacity="0.7"/>
</g>
</svg>
