<svg width="158" height="158" viewBox="0 0 158 158" fill="none" xmlns="http://www.w3.org/2000/svg">
<path d="M145.167 80.58L157.638 81.4956L157.091 88.9396L155.631 88.8324L156.058 83.016L145.048 82.2076L145.167 80.58Z" fill="#342C41"/>
<path d="M142.713 95.924C142.937 95.0565 143.308 94.2932 143.826 93.6339C144.359 92.9786 144.982 92.454 145.696 92.0602C146.425 91.6704 147.209 91.4188 148.048 91.3054C148.883 91.2076 149.734 91.2709 150.602 91.4954C151.733 91.788 152.704 92.3122 153.517 93.0679C154.325 93.8391 154.89 94.7538 155.211 95.812C155.548 96.8742 155.566 97.9862 155.265 99.1479C154.956 100.341 154.401 101.304 153.6 102.039C152.794 102.789 151.853 103.297 150.776 103.564C149.714 103.834 148.625 103.825 147.51 103.537C147.386 103.505 147.262 103.473 147.138 103.441C147.03 103.413 146.947 103.383 146.889 103.351L149.571 92.9887C148.683 92.8416 147.847 92.8813 147.061 93.1076C146.287 93.3535 145.614 93.7496 145.043 94.2959C144.483 94.8617 144.103 95.5319 143.903 96.3064C143.698 97.0963 143.707 97.892 143.93 98.6932C144.148 99.51 144.546 100.142 145.125 100.589L144.398 101.864C143.889 101.468 143.468 100.954 143.136 100.322C142.804 99.6909 142.596 98.9926 142.513 98.2275C142.442 97.4818 142.508 96.7139 142.713 95.924ZM150.721 93.2369L148.406 102.182C149.305 102.349 150.142 102.309 150.916 102.063C151.686 101.833 152.343 101.433 152.888 100.863C153.443 100.313 153.823 99.6424 154.028 98.8524C154.232 98.0625 154.225 97.2921 154.006 96.5413C153.803 95.7945 153.414 95.1238 152.841 94.5292C152.279 93.9541 151.573 93.5233 150.721 93.2369Z" fill="#342C41"/>
<path d="M141.29 102.652L152.391 108.406L151.64 109.855L141.817 104.763L139.354 109.515L149.177 114.607L148.415 116.077L138.592 110.985L136.14 115.715L145.963 120.807L145.212 122.256L134.111 116.502L141.29 102.652Z" fill="#342C41"/>
<path d="M130.729 120.32L139.238 127.355L142.082 123.915L143.21 124.847L136.482 132.986L135.353 132.053L138.198 128.613L129.689 121.578L130.729 120.32Z" fill="#342C41"/>
<path d="M128.094 128.934C128.598 129.534 128.858 130.193 128.875 130.91C128.902 131.639 128.713 132.372 128.308 133.109C127.901 133.868 127.299 134.582 126.502 135.251C126.036 135.642 125.521 136.011 124.957 136.359C124.393 136.707 123.853 136.973 123.337 137.155L124.016 137.964C124.695 138.772 125.474 139.215 126.353 139.292C127.232 139.369 128.095 139.053 128.94 138.343C129.455 137.911 129.882 137.386 130.219 136.769C130.555 136.173 130.839 135.466 131.07 134.645L132.288 135.127C132.023 136.08 131.678 136.913 131.252 137.625C130.836 138.35 130.316 138.975 129.691 139.499C128.514 140.486 127.3 140.931 126.048 140.833C124.796 140.735 123.671 140.091 122.674 138.902L118.956 134.472C118.812 134.3 118.667 134.202 118.521 134.178C118.386 134.166 118.234 134.221 118.064 134.342L117.231 133.35C117.355 133.224 117.462 133.114 117.549 133.02C117.637 132.925 117.711 132.864 117.77 132.835C118.087 132.59 118.402 132.492 118.715 132.543C119.029 132.593 119.279 132.717 119.467 132.915L120.071 133.598C120.037 132.687 120.235 131.79 120.664 130.907C121.104 130.037 121.679 129.304 122.39 128.707C123.003 128.193 123.668 127.854 124.387 127.69C125.103 127.548 125.788 127.579 126.44 127.784C127.09 128.011 127.641 128.394 128.094 128.934ZM121.061 133.582C121.07 133.867 121.104 134.12 121.165 134.341C121.225 134.562 121.306 134.734 121.409 134.857L122.582 136.254C123.132 136.063 123.67 135.821 124.195 135.526C124.709 135.242 125.192 134.909 125.645 134.529C126.54 133.778 127.114 132.993 127.368 132.175C127.621 131.357 127.49 130.641 126.976 130.028C126.678 129.673 126.303 129.413 125.852 129.249C125.411 129.097 124.925 129.065 124.395 129.155C123.875 129.257 123.376 129.509 122.898 129.91C122.297 130.414 121.837 130.999 121.518 131.663C121.186 132.339 121.034 132.978 121.061 133.582Z" fill="#342C41"/>
<path d="M116.691 133.739L117.415 135.04C117.037 135.25 116.756 135.534 116.571 135.893C116.395 136.266 116.33 136.76 116.379 137.374C116.414 137.995 116.598 138.771 116.933 139.702C117.276 140.647 117.795 141.795 118.493 143.146L120.059 146.257L112.97 150.202L106.89 139.275L108.316 138.482L113.685 148.129L118.089 145.678L117.08 143.767C116.296 142.226 115.711 140.895 115.325 139.773C114.946 138.665 114.761 137.724 114.77 136.951C114.765 136.184 114.93 135.543 115.265 135.027C115.601 134.511 116.076 134.082 116.691 133.739Z" fill="#342C41"/>
<path d="M103.905 140.541L107.81 152.42L106.259 152.93L104.88 148.734L101.802 149.746C100.449 150.191 99.3161 150.176 98.4023 149.702C97.4782 149.247 96.8314 148.458 96.4616 147.333C96.2218 146.604 96.1565 145.892 96.2656 145.2C96.3747 144.507 96.6682 143.888 97.1461 143.344C97.6088 142.805 98.2809 142.39 99.1625 142.1L103.905 140.541ZM102.759 142.282L99.7724 143.264C99.1492 143.469 98.6876 143.755 98.3875 144.123C98.0925 144.507 97.9187 144.926 97.8662 145.381C97.8187 145.851 97.8724 146.322 98.0273 146.793C98.1772 147.249 98.3982 147.64 98.6903 147.965C98.9722 148.31 99.3482 148.532 99.8184 148.63C100.278 148.748 100.85 148.695 101.534 148.47L104.475 147.503L102.759 142.282Z" fill="#342C41"/>
<path d="M89.5066 144.395L91.0327 155.329L95.4539 154.712L95.6562 156.162L85.1976 157.621L84.9953 156.171L89.4164 155.554L87.8903 144.62L89.5066 144.395Z" fill="#342C41"/>
<path d="M80.2747 151.052L80.228 152.563L73.2234 152.347L73.27 150.836L80.2747 151.052Z" fill="#342C41"/>
<path d="M67.2756 144.158L65.1244 154.987L69.5028 155.857L69.2175 157.292L58.86 155.235L59.1452 153.799L63.5237 154.669L65.6749 143.84L67.2756 144.158Z" fill="#342C41"/>
<path d="M54.1649 140.077C54.9953 140.414 55.7032 140.882 56.2886 141.482C56.8681 142.097 57.3061 142.784 57.6026 143.543C57.8932 144.317 58.0394 145.127 58.0414 145.974C58.0285 146.815 57.8538 147.65 57.5171 148.481C57.0782 149.563 56.4308 150.457 55.5748 151.163C54.7039 151.864 53.7228 152.303 52.6316 152.482C51.5343 152.676 50.4296 152.548 49.3176 152.097C48.1758 151.634 47.2936 150.957 46.6709 150.065C46.0333 149.168 45.6532 148.168 45.5307 147.065C45.402 145.977 45.5542 144.899 45.987 143.832C46.0351 143.713 46.0832 143.595 46.1313 143.476C46.1734 143.372 46.2139 143.294 46.2527 143.24L56.1724 147.262C56.4349 146.402 56.5057 145.567 56.3847 144.758C56.2429 143.959 55.9387 143.24 55.4723 142.602C54.985 141.972 54.3706 141.508 53.6293 141.207C52.8731 140.9 52.0832 140.805 51.2596 140.919C50.4213 141.028 49.7424 141.34 49.223 141.855L48.055 140.967C48.5147 140.514 49.0794 140.165 49.749 139.919C50.4187 139.672 51.1383 139.558 51.9077 139.577C52.6563 139.604 53.4087 139.771 54.1649 140.077ZM55.775 148.37L47.2121 144.898C46.9287 145.767 46.858 146.602 46.9998 147.402C47.1268 148.196 47.437 148.9 47.9303 149.514C48.4027 150.137 49.0171 150.602 49.7733 150.909C50.5295 151.216 51.2941 151.31 52.0672 151.192C52.8342 151.088 53.5502 150.791 54.215 150.301C54.8591 149.82 55.3791 149.176 55.775 148.37Z" fill="#342C41"/>
<path d="M41.4922 133.177C42.3572 133.755 42.9846 134.501 43.3745 135.415C43.7511 136.321 43.9169 137.239 43.8719 138.171L48.1496 131.764L49.5069 132.67L39.7256 147.321L38.5081 146.508L39.854 144.492C39.0061 144.869 38.103 145.026 37.1445 144.963C36.1771 144.914 35.3009 144.627 34.5158 144.103C33.7972 143.623 33.2407 143.03 32.8462 142.324C32.4428 141.632 32.1904 140.886 32.0888 140.087C31.9873 139.288 32.0344 138.483 32.2302 137.671C32.4038 136.864 32.7216 136.114 33.1836 135.422C33.8321 134.45 34.6314 133.685 35.5814 133.127C36.5092 132.573 37.4901 132.285 38.5241 132.264C39.558 132.242 40.5474 132.547 41.4922 133.177ZM41.0719 134.628C40.4997 134.246 39.9119 134.017 39.3084 133.941C38.6961 133.879 38.097 133.941 37.5111 134.127C36.9119 134.304 36.3614 134.581 35.8597 134.958C35.3492 135.348 34.9162 135.809 34.5608 136.341C34.1877 136.9 33.9321 137.499 33.7942 138.138C33.6429 138.768 33.6181 139.396 33.7197 140.022C33.8214 140.647 34.0295 141.229 34.3443 141.766C34.659 142.303 35.0891 142.754 35.6347 143.118C35.9807 143.349 36.3844 143.523 36.8458 143.638C37.3073 143.754 37.7954 143.801 38.3102 143.779C38.8027 143.762 39.2643 143.675 39.6949 143.52C40.1254 143.365 40.4828 143.132 40.767 142.822L42.8991 139.628C43.0149 138.994 43.0265 138.357 42.9337 137.718C42.832 137.092 42.6283 136.504 42.3225 135.954C41.9944 135.408 41.5776 134.966 41.0719 134.628Z" fill="#342C41"/>
<path d="M33.8599 132.4C33.3056 132.954 32.672 133.271 31.9592 133.35C31.2352 133.44 30.4885 133.316 29.7191 132.977C28.9272 132.637 28.1635 132.1 27.4281 131.364C26.9982 130.934 26.5852 130.454 26.1893 129.922C25.7933 129.39 25.4821 128.875 25.2559 128.378L24.5092 129.124C23.7625 129.871 23.3891 130.686 23.3891 131.568C23.3891 132.45 23.7794 133.282 24.5601 134.063C25.0353 134.538 25.5953 134.917 26.2402 135.2C26.8624 135.483 27.5922 135.703 28.4294 135.862L28.056 137.117C27.083 136.936 26.2232 136.665 25.4765 136.303C24.7185 135.952 24.051 135.488 23.474 134.911C22.3878 133.825 21.8391 132.654 21.8278 131.398C21.8165 130.142 22.3596 128.966 23.457 127.868L27.5469 123.779C27.7053 123.62 27.7901 123.467 27.8015 123.32C27.8015 123.185 27.7336 123.037 27.5978 122.879L28.5142 121.963C28.65 122.076 28.7688 122.172 28.8706 122.251C28.9724 122.33 29.0403 122.398 29.0742 122.455C29.3458 122.749 29.4702 123.054 29.4476 123.371C29.425 123.688 29.3232 123.948 29.1421 124.152L28.5142 124.814C29.4193 124.701 30.3301 124.819 31.2465 125.17C32.1516 125.532 32.9322 126.041 33.5884 126.697C34.1541 127.263 34.5501 127.897 34.7764 128.598C34.98 129.3 35.0083 129.984 34.8612 130.652C34.6915 131.319 34.3578 131.902 33.8599 132.4ZM28.616 125.798C28.3332 125.832 28.0843 125.889 27.8693 125.968C27.6544 126.047 27.4903 126.143 27.3772 126.256L26.0874 127.546C26.325 128.078 26.6135 128.593 26.9529 129.09C27.281 129.577 27.6544 130.029 28.073 130.448C28.8989 131.274 29.7304 131.777 30.5677 131.958C31.4049 132.139 32.1063 131.947 32.672 131.381C33.0001 131.053 33.2264 130.657 33.3508 130.193C33.464 129.741 33.4527 129.254 33.3169 128.734C33.1698 128.225 32.8757 127.75 32.4344 127.308C31.88 126.754 31.2578 126.347 30.5677 126.087C29.8662 125.815 29.2157 125.719 28.616 125.798Z" fill="#342C41"/>
<path d="M27.3602 120.563L16.9863 127.544L11.3722 119.201L21.7461 112.22L22.6572 113.574L13.4979 119.738L17.2898 125.373L26.4491 119.209L27.3602 120.563Z" fill="#342C41"/>
<path d="M18.2903 104.32C18.6363 105.147 18.8025 105.979 18.7891 106.817C18.761 107.662 18.5819 108.456 18.2521 109.202C17.9074 109.953 17.4353 110.628 16.8356 111.225C16.2298 111.809 15.5136 112.273 14.6871 112.619C13.6097 113.07 12.5189 113.24 11.4147 113.13C10.3044 113.005 9.30127 112.619 8.40545 111.97C7.49487 111.328 6.80792 110.453 6.34459 109.346C5.8689 108.21 5.72804 107.107 5.922 106.037C6.10978 104.952 6.5519 103.978 7.24835 103.114C7.93003 102.256 8.80221 101.605 9.86488 101.16C9.98295 101.111 10.101 101.062 10.2191 101.012C10.3224 100.969 10.4067 100.942 10.4719 100.932L14.6048 110.806C15.4004 110.387 16.0426 109.849 16.5314 109.193C16.9993 108.529 17.2953 107.807 17.4196 107.026C17.523 106.237 17.4202 105.474 17.1113 104.736C16.7962 103.983 16.3078 103.355 15.6461 102.851C14.9782 102.333 14.2787 102.071 13.5476 102.065L13.3551 100.61C14 100.618 14.6458 100.772 15.2924 101.074C15.9391 101.376 16.5269 101.806 17.0558 102.365C17.5637 102.916 17.9752 103.568 18.2903 104.32ZM13.5385 111.305L9.97089 102.781C9.15432 103.192 8.51211 103.73 8.04426 104.394C7.57024 105.044 7.28894 105.76 7.20036 106.543C7.09084 107.317 7.19362 108.08 7.50868 108.833C7.82375 109.586 8.2955 110.195 8.92395 110.66C9.53764 111.132 10.2526 111.431 11.0688 111.558C11.8641 111.676 12.6873 111.592 13.5385 111.305Z" fill="#342C41"/>
<path d="M15.2295 96.4629L2.97461 98.9463L1.73532 92.8306C1.5955 92.1406 1.6269 91.5302 1.82951 90.9994C2.01644 90.4718 2.31346 90.0443 2.72055 89.7169C3.12446 89.3738 3.58516 89.1499 4.10264 89.045C4.76126 88.9116 5.38892 88.9476 5.98564 89.1532C6.56667 89.362 7.05086 89.7373 7.43819 90.2791C7.49905 89.5322 7.75158 88.8851 8.19576 88.338C8.63995 87.7909 9.2384 87.4411 9.9911 87.2886C10.6497 87.1551 11.2554 87.2038 11.8083 87.4346C12.358 87.6497 12.8233 88.0125 13.2043 88.523C13.5821 89.0178 13.8441 89.6259 13.9902 90.3472L15.2295 96.4629ZM13.7671 95.1676L12.8472 90.6278C12.7646 90.2201 12.588 89.8723 12.3174 89.5843C12.0279 89.2838 11.6917 89.0744 11.3085 88.9561C10.9222 88.8222 10.5409 88.7933 10.1646 88.8696C9.75685 88.9522 9.4074 89.121 9.11623 89.3759C8.80937 89.634 8.58579 89.9405 8.44549 90.2954C8.30519 90.6504 8.27634 91.0317 8.35896 91.4394L9.29797 96.0732L13.7671 95.1676ZM8.19244 96.2972L7.34876 92.1339C7.26614 91.7261 7.08329 91.3877 6.8002 91.1186C6.51711 90.8494 6.18559 90.6636 5.80565 90.561C5.4257 90.4584 5.04756 90.4452 4.67121 90.5215C4.10668 90.6359 3.65085 90.9242 3.30372 91.3863C2.95341 91.8328 2.83705 92.3461 2.95462 92.9263L3.81736 97.1838L8.19244 96.2972Z" fill="#342C41"/>
<path d="M13.1284 81.8028L2.09047 82.0159L2.17662 86.4791L0.712891 86.5073L0.509098 75.9493L1.97283 75.921L2.05898 80.3842L13.0969 80.1712L13.1284 81.8028Z" fill="#342C41"/>
<path d="M19.2942 50.9708L8.30127 45.0122L11.8581 38.4502L13.1452 39.1478L10.3661 44.2751L20.0719 49.536L19.2942 50.9708Z" fill="#342C41"/>
<path d="M27.6738 38.1943C27.1155 38.8951 26.4657 39.4412 25.7244 39.8326C24.9706 40.214 24.1877 40.4392 23.3757 40.5084C22.5512 40.5676 21.7327 40.4781 20.9201 40.2399C20.1175 39.9892 19.3657 39.5847 18.6649 39.0264C17.7513 38.2986 17.0774 37.4242 16.6429 36.4031C16.2185 35.3695 16.0751 34.3041 16.2128 33.2068C16.3379 32.0996 16.7743 31.0767 17.522 30.1381C18.2896 29.1745 19.1891 28.5204 20.2204 28.1759C21.2616 27.8189 22.3284 27.738 23.4208 27.9332C24.5007 28.1183 25.4911 28.5698 26.3922 29.2876C26.4923 29.3673 26.5924 29.4471 26.6925 29.5268C26.7801 29.5966 26.844 29.6577 26.8841 29.7101L20.2147 38.0824C20.9654 38.5781 21.7456 38.8826 22.5555 38.9958C23.3628 39.0866 24.1384 38.9988 24.8825 38.7324C25.6241 38.4435 26.2441 37.9862 26.7425 37.3604C27.251 36.7222 27.5668 35.9919 27.69 35.1695C27.8232 34.3346 27.7167 33.5952 27.3706 32.9513L28.5532 32.083C28.8567 32.6521 29.0317 33.2926 29.0782 34.0047C29.1246 34.7168 29.0299 35.4391 28.7941 36.1717C28.5557 36.8819 28.1822 37.5561 27.6738 38.1943ZM19.265 37.3872L25.0222 30.16C24.2689 29.6418 23.4887 29.3373 22.6814 29.2466C21.8841 29.1433 21.1209 29.241 20.3919 29.5399C19.6603 29.8163 19.0403 30.2736 18.5319 30.9119C18.0234 31.5501 17.7163 32.2567 17.6105 33.0315C17.4921 33.7964 17.5737 34.5671 17.8552 35.3436C18.1341 36.0977 18.604 36.7789 19.265 37.3872Z" fill="#342C41"/>
<path d="M31.6277 32.6524L23.8013 22.9006L25.074 21.8791L31.9992 30.5078L36.1732 27.1579L29.248 18.5292L30.5395 17.4927L37.4647 26.1214L41.6199 22.7865L34.6948 14.1578L35.9675 13.1363L43.794 22.8881L31.6277 32.6524Z" fill="#342C41"/>
<path d="M48.3048 20.7749L43.37 10.8992L39.3768 12.8946L38.7224 11.585L48.1687 6.86472L48.8231 8.17432L44.8299 10.1697L49.7647 20.0454L48.3048 20.7749Z" fill="#342C41"/>
<path d="M54.0967 13.9365C53.8802 13.183 53.9099 12.4752 54.1858 11.8133C54.4574 11.136 54.9279 10.543 55.5974 10.0343C56.278 9.5058 57.118 9.09795 58.1176 8.81074C58.7019 8.64283 59.3226 8.51443 59.9796 8.42554C60.6366 8.33664 61.2376 8.31376 61.7828 8.3569L61.4911 7.34197C61.1995 6.32704 60.6677 5.60586 59.8956 5.17846C59.1235 4.75105 58.207 4.68978 57.1459 4.99467C56.5 5.18025 55.8972 5.48664 55.3374 5.91385C54.7886 6.32126 54.2421 6.85284 53.6981 7.50859L52.7802 6.57372C53.4098 5.81015 54.0638 5.1894 54.7422 4.71146C55.4162 4.21815 56.1453 3.85882 56.9296 3.63347C58.4059 3.20929 59.6961 3.29636 60.8003 3.8947C61.9044 4.49304 62.6708 5.53803 63.0994 7.02967L64.6968 12.5887C64.7586 12.804 64.8511 12.9522 64.9743 13.0334C65.0931 13.0991 65.2547 13.111 65.459 13.0689L65.8169 14.3145C65.6522 14.3785 65.5105 14.4358 65.3919 14.4866C65.2733 14.5373 65.181 14.5638 65.1151 14.5661C64.7262 14.6612 64.3987 14.6221 64.1325 14.4489C63.8663 14.2757 63.688 14.0606 63.5975 13.8036L63.3226 12.9337C62.9832 13.7803 62.4381 14.5196 61.6874 15.1515C60.9323 15.768 60.1088 16.2044 59.2169 16.4606C58.448 16.6816 57.7019 16.7211 56.9787 16.5794C56.2663 16.4178 55.6538 16.111 55.141 15.6591C54.6392 15.1873 54.2911 14.6131 54.0967 13.9365ZM62.4121 12.546C62.5194 12.2821 62.5905 12.037 62.6253 11.8105C62.6601 11.5841 62.6554 11.394 62.6112 11.2402L62.1075 9.48717C61.5272 9.43749 60.9371 9.44057 60.3372 9.49642C59.7527 9.54784 59.1759 9.6553 58.607 9.81879C57.4844 10.1413 56.6412 10.625 56.0773 11.2698C55.5135 11.9146 55.342 12.6214 55.5629 13.3903C55.6911 13.8363 55.9279 14.226 56.2735 14.5596C56.6146 14.8777 57.0457 15.1035 57.5668 15.2368C58.0834 15.3547 58.6416 15.3274 59.2413 15.1551C59.9948 14.9386 60.6526 14.5915 61.2145 14.1137C61.7918 13.6315 62.191 13.109 62.4121 12.546Z" fill="#342C41"/>
<path d="M66.6263 14.0852L66.5002 12.6026C66.9307 12.5659 67.3038 12.4218 67.6196 12.1701C67.9341 11.9025 68.1951 11.4789 68.4027 10.8992C68.6263 10.3182 68.7764 9.53462 68.8531 8.54857C68.9285 7.54658 68.9257 6.28628 68.8447 4.76768L68.6932 1.288L76.7761 0.600524L77.8357 13.0595L76.2096 13.1978L75.274 2.19757L70.2521 2.62469L70.3874 4.78099C70.47 6.5082 70.4572 7.96252 70.349 9.14394C70.2393 10.3094 70.0217 11.2432 69.696 11.9454C69.3863 12.6461 68.9726 13.163 68.455 13.4961C67.9374 13.8292 67.3278 14.0255 66.6263 14.0852Z" fill="#342C41"/>
<path d="M81.4298 13.0747L82.729 0.638428L84.3522 0.808002L83.8933 5.2001L87.1158 5.53675C88.5321 5.68472 89.56 6.16211 90.1997 6.96894C90.8569 7.76152 91.124 8.7466 91.0009 9.92419C90.9211 10.688 90.6897 11.3636 90.3066 11.951C89.9235 12.5384 89.4025 12.9827 88.7436 13.2838C88.1007 13.5867 87.3177 13.6899 86.3947 13.5934L81.4298 13.0747ZM83.1876 11.9553L86.3146 12.282C86.967 12.3502 87.5055 12.2777 87.9299 12.0647C88.356 11.8357 88.6861 11.5243 88.9203 11.1305C89.1562 10.7208 89.2999 10.2693 89.3514 9.776C89.4013 9.29859 89.3595 8.85183 89.226 8.43571C89.1101 8.00534 88.8577 7.64919 88.4689 7.36726C88.0977 7.07108 87.554 6.88559 86.8379 6.81078L83.7587 6.48909L83.1876 11.9553Z" fill="#342C41"/>
<path d="M95.8627 15.3216L98.9115 4.7109L94.6211 3.47811L95.0254 2.07104L105.175 4.98732L104.77 6.39438L100.48 5.1616L97.4312 15.7723L95.8627 15.3216Z" fill="#342C41"/>
<path d="M106.861 12.8741L107.517 11.5117L113.831 14.5509L113.176 15.9133L106.861 12.8741Z" fill="#342C41"/>
<path d="M114.19 23.1449L121.472 12.9797L122.798 13.9301L119.682 18.281L121.204 19.3711L127.735 17.466L129.257 18.5561L121.838 20.7112L122.463 29.0707L120.902 27.9526L120.323 20.6003L118.801 19.5102L115.517 24.0953L114.19 23.1449Z" fill="#342C41"/>
<path d="M127.379 34.5578C126.766 33.9038 126.32 33.1817 126.04 32.3915C125.783 31.602 125.679 30.8006 125.728 29.9872C125.8 29.1745 126.013 28.3947 126.365 27.6478C126.73 26.89 127.227 26.2158 127.858 25.6252C128.512 25.0126 129.223 24.5548 129.991 24.2517C130.771 23.9376 131.569 23.7826 132.384 23.7866C133.21 23.7797 134.003 23.9358 134.762 24.2549C135.544 24.5748 136.242 25.0617 136.854 25.7157C137.467 26.3696 137.901 27.0913 138.159 27.8808C138.427 28.6594 138.531 29.4608 138.47 30.2852C138.421 31.0986 138.214 31.8842 137.85 32.642C137.497 33.3889 136.994 34.0686 136.34 34.6811C135.709 35.2717 135.004 35.7241 134.224 36.0382C133.456 36.3413 132.658 36.4963 131.832 36.5033C131.028 36.5109 130.235 36.3548 129.453 36.0349C128.694 35.7158 128.002 35.2234 127.379 34.5578ZM128.972 26.8502C128.295 27.4846 127.813 28.2102 127.526 29.0272C127.261 29.8449 127.201 30.6579 127.344 31.4663C127.499 32.2638 127.861 32.9661 128.43 33.5734C128.999 34.1806 129.682 34.5821 130.479 34.778C131.276 34.9739 132.097 34.9611 132.942 34.7397C133.799 34.5074 134.56 34.0795 135.225 33.4561C135.903 32.8217 136.38 32.0902 136.656 31.2615C136.932 30.4329 136.998 29.6144 136.855 28.806C136.711 27.9976 136.355 27.2898 135.787 26.6826C135.218 26.0753 134.529 25.6793 133.72 25.4943C132.922 25.321 132.101 25.3451 131.256 25.5665C130.422 25.777 129.661 26.2049 128.972 26.8502Z" fill="#342C41"/>
<path d="M128.978 44.3225C128.834 44.0914 128.727 43.8282 128.657 43.5329C128.582 43.2596 128.536 42.9584 128.52 42.6294L129.815 42.5314C129.826 42.7316 129.843 42.9097 129.864 43.0658C129.894 43.2355 129.956 43.3951 130.049 43.5446C130.268 43.898 130.652 44.1214 131.199 44.2146C131.747 44.3078 132.449 44.2861 133.306 44.1495L134.96 43.8568L142.564 32.5813L143.476 34.0493L136.698 43.6533L148.122 41.5323L148.983 42.9187L133.549 45.496C132.741 45.6209 132.04 45.6603 131.447 45.6145C130.853 45.5686 130.356 45.4349 129.955 45.2132C129.54 45 129.214 44.7031 128.978 44.3225Z" fill="#342C41"/>
<path d="M141.906 58.5944L146.79 56.7196C146.383 56.3276 146.019 55.8931 145.699 55.4162C145.393 54.9335 145.126 54.3934 144.897 53.7959C144.404 52.5113 144.36 51.4142 144.765 50.5047C145.175 49.6101 146.06 48.902 147.42 48.3803L150.87 47.0559L151.455 48.5795L148.206 49.8265C147.161 50.2278 146.479 50.7293 146.162 51.331C145.85 51.9477 145.875 52.7266 146.236 53.6676C146.436 54.1904 146.697 54.6903 147.017 55.1673C147.337 55.6442 147.657 56.0097 147.978 56.2638L153.579 54.1139L154.164 55.6375L142.49 60.118L141.906 58.5944Z" fill="#342C41"/>
</svg>
