<svg width="133" height="127" viewBox="0 0 133 127" fill="none" xmlns="http://www.w3.org/2000/svg">
<g opacity="0.7">
<path d="M-6.13592 53.2307C-51.79 79.684 -79.8696 116.681 -68.8536 135.866C-57.8376 155.052 -11.8974 149.16 33.7566 122.706C79.4107 96.2529 107.49 59.2556 96.4743 40.0705C85.4583 20.8854 39.5181 26.7774 -6.13592 53.2307Z" stroke="#B09F85" stroke-opacity="0.7" stroke-miterlimit="10"/>
<path d="M72.5428 24.2577C69.7508 25.2897 68.3341 28.4166 69.3784 31.2417C70.4227 34.0669 73.5325 35.5205 76.3244 34.4885C79.1163 33.4565 80.5331 30.3297 79.4888 27.5045C78.4445 24.6794 75.3347 23.2257 72.5428 24.2577Z" fill="#B09F85" fill-opacity="0.7"/>
<path d="M2.7946 81.2931C-29.8314 98.2205 -48.9409 126.432 -39.8876 144.305C-30.8344 162.178 2.95336 162.945 35.5794 146.017C68.2054 129.09 87.3149 100.879 78.2616 83.0055C69.2083 65.1324 35.4206 64.3658 2.7946 81.2931Z" stroke="#B09F85" stroke-opacity="0.7" stroke-miterlimit="10"/>
</g>
</svg>
