<svg width="160" height="207" viewBox="0 0 160 207" fill="none" xmlns="http://www.w3.org/2000/svg">
<g opacity="0.7">
<path d="M82.1502 66.7446C46.198 99.675 28.4636 138.927 42.5391 154.415C56.6147 169.904 97.1702 155.765 133.122 122.835C169.075 89.9047 186.809 50.6531 172.733 35.1642C158.658 19.6753 118.102 33.8143 82.1502 66.7446Z" stroke="#B09F85" stroke-opacity="0.7" stroke-miterlimit="10"/>
<path d="M89.0398 89.0201C64.6537 114.069 56.884 146.287 71.6858 160.981C86.4875 175.674 118.256 167.279 142.642 142.23C167.028 117.181 174.798 84.9634 159.996 70.2698C145.194 55.5762 113.426 63.971 89.0398 89.0201Z" stroke="#B09F85" stroke-opacity="0.7" stroke-miterlimit="10"/>
<path d="M92.4423 162.49C89.4381 164.418 88.5839 168.445 90.5344 171.485C92.4849 174.525 96.5015 175.426 99.5057 173.499C102.51 171.571 103.364 167.544 101.414 164.504C99.4631 161.464 95.4465 160.563 92.4423 162.49Z" fill="#B09F85" fill-opacity="0.7"/>
<path d="M151.696 19.5791C146.894 22.6601 145.529 29.0969 148.646 33.9561C151.764 38.8152 158.184 40.2567 162.986 37.1756C167.788 34.0946 169.154 27.6578 166.036 22.7986C162.918 17.9395 156.498 16.498 151.696 19.5791Z" fill="#B09F85" fill-opacity="0.7"/>
</g>
</svg>
