<svg width="404" height="353" viewBox="0 0 404 353" fill="none" xmlns="http://www.w3.org/2000/svg">
<g opacity="0.7">
<path d="M84.5827 307.967C94.6436 305.988 101.198 296.241 99.2221 286.196C97.2463 276.151 87.4887 269.612 77.4278 271.59C67.3669 273.569 60.8126 283.317 62.7884 293.362C64.7642 303.407 74.5219 309.946 84.5827 307.967Z" fill="#B09F85" fill-opacity="0.7"/>
<path d="M246.713 207.195C311.601 173.831 348.481 116.302 329.086 78.7C309.691 41.0979 241.366 37.6618 176.477 71.0253C111.589 104.389 74.7094 161.918 94.1045 199.52C113.5 237.122 181.825 240.558 246.713 207.195Z" stroke="#B09F85" stroke-opacity="0.7" stroke-miterlimit="10"/>
<path d="M240.544 279.261C322.973 242.561 375.072 179.787 356.911 139.053C338.749 98.319 257.204 95.0491 174.775 131.75C92.3456 168.45 40.2467 231.224 58.4085 271.958C76.5702 312.692 158.115 315.962 240.544 279.261Z" stroke="#B09F85" stroke-opacity="0.7" stroke-miterlimit="10"/>
<path d="M299.358 67.7763C305.652 66.5383 309.753 60.4402 308.516 54.1558C307.28 47.8714 301.176 43.7805 294.882 45.0185C288.587 46.2565 284.487 52.3546 285.723 58.639C286.959 64.9234 293.064 69.0143 299.358 67.7763Z" fill="#B09F85" fill-opacity="0.7"/>
</g>
</svg>
