<svg width="463" height="73" viewBox="0 0 463 73" fill="none" xmlns="http://www.w3.org/2000/svg">
<g clip-path="url(#clip0_421_68)">
<path d="M250.96 0L241.87 22.36L239.82 27.48L226.34 61.02L213.44 28.4L211.02 22.36L201.93 0H196.84L226.24 72.9L256.05 0H250.96Z" fill="black"/>
<path d="M256 36.8899C258.916 33.9267 262.651 31.9029 266.726 31.0783C270.8 30.2537 275.029 30.6661 278.867 32.2623C282.706 33.8586 285.979 36.5659 288.268 40.0366C290.556 43.5073 291.755 47.5829 291.71 51.7399C291.71 57.2697 289.513 62.5729 285.603 66.4831C281.693 70.3932 276.39 72.5899 270.86 72.5899C265.33 72.5899 260.027 70.3932 256.117 66.4831C252.207 62.5729 250.01 57.2697 250.01 51.7399C249.942 48.9868 250.438 46.249 251.468 43.695C252.499 41.1411 254.041 38.8251 256 36.8899ZM258.93 63.8899C260.493 65.4642 262.353 66.7137 264.401 67.5664C266.45 68.419 268.646 68.858 270.865 68.858C273.084 68.858 275.281 68.419 277.329 67.5664C279.377 66.7137 281.237 65.4642 282.8 63.8899C284.377 62.2849 285.616 60.3801 286.444 58.2881C287.272 56.196 287.672 53.9592 287.62 51.7099C287.67 49.4622 287.27 47.2273 286.442 45.1371C285.614 43.0469 284.376 41.1437 282.8 39.5399C281.237 37.9656 279.377 36.7161 277.329 35.8634C275.281 35.0108 273.084 34.5718 270.865 34.5718C268.646 34.5718 266.45 35.0108 264.401 35.8634C262.353 36.7161 260.493 37.9656 258.93 39.5399C257.351 41.1415 256.11 43.0441 255.28 45.1347C254.45 47.2253 254.049 49.4613 254.1 51.7099C254.045 53.9658 254.446 56.2097 255.277 58.3075C256.109 60.4053 257.355 62.3141 258.94 63.9199L258.93 63.8899Z" fill="black"/>
<path d="M299.72 0H303.72V72.9H299.72V0Z" fill="black"/>
<path d="M311.72 0H315.72V49.6L332.52 32.1H337.72L320.52 49.8L343.32 72.9H337.92L317.82 52.7L315.72 54.8V72.9H311.72V0Z" fill="black"/>
<path d="M349.31 36.8899C352.227 33.9338 355.96 31.9161 360.032 31.0956C364.103 30.275 368.326 30.689 372.161 32.2844C375.995 33.8799 379.266 36.584 381.553 40.0503C383.841 43.5166 385.041 47.587 385 51.7399C385 57.2697 382.803 62.5729 378.893 66.4831C374.983 70.3932 369.68 72.5899 364.15 72.5899C358.62 72.5899 353.317 70.3932 349.407 66.4831C345.497 62.5729 343.3 57.2697 343.3 51.7399C343.234 48.9854 343.734 46.2467 344.767 43.6926C345.801 41.1386 347.347 38.8234 349.31 36.8899ZM352.24 63.8899C353.803 65.4642 355.663 66.7137 357.711 67.5664C359.759 68.419 361.956 68.858 364.175 68.858C366.394 68.858 368.59 68.419 370.639 67.5664C372.687 66.7137 374.547 65.4642 376.11 63.8899C377.687 62.2849 378.926 60.3801 379.754 58.2881C380.581 56.196 380.981 53.9592 380.93 51.7099C380.98 49.4622 380.579 47.2273 379.752 45.1371C378.924 43.0469 377.685 41.1437 376.11 39.5399C374.547 37.9656 372.687 36.7161 370.639 35.8634C368.59 35.0108 366.394 34.5718 364.175 34.5718C361.956 34.5718 359.759 35.0108 357.711 35.8634C355.663 36.7161 353.803 37.9656 352.24 39.5399C350.661 41.1415 349.419 43.0441 348.59 45.1347C347.76 47.2253 347.359 49.4613 347.41 51.7099C347.354 53.9651 347.753 56.2085 348.583 58.3063C349.412 60.4041 350.656 62.3132 352.24 63.9199V63.8899Z" fill="black"/>
<path d="M385.62 31.3401H389.77L403.34 63.2801L416.72 31.3401H420.86L403.34 72.1401L385.62 31.3401Z" fill="black"/>
<path d="M458.6 38.74V31.85H462.48V71.44H458.6V64.36C455.04 69.7933 449.897 72.51 443.17 72.51C440.617 72.5533 438.083 72.0665 435.729 71.0801C433.374 70.0938 431.25 68.6296 429.49 66.78C425.743 62.9667 423.867 57.92 423.86 51.64C423.86 45.5 425.64 40.52 429.2 36.7C432.76 32.88 437.427 30.9733 443.2 30.98C449.78 30.9933 454.913 33.58 458.6 38.74ZM443.37 34.66C441.346 34.6362 439.339 35.0247 437.47 35.8018C435.601 36.5789 433.91 37.7283 432.5 39.18C429.46 42.18 427.94 46.2367 427.94 51.35C427.847 55.8057 429.323 60.1524 432.11 63.63C433.506 65.2496 435.233 66.5509 437.175 67.446C439.117 68.3411 441.229 68.8092 443.367 68.8186C445.505 68.8281 447.621 68.3788 449.571 67.5009C451.521 66.6231 453.259 65.3372 454.67 63.73C457.462 60.219 458.921 55.8336 458.79 51.35C458.79 46.0167 457.207 41.8933 454.04 38.98C451.171 36.222 447.35 34.6749 443.37 34.66Z" fill="black"/>
<path d="M65.0698 72.73V31.93H69.0698V38.33C70.2353 36.0416 72.0321 34.1351 74.2474 32.8361C76.4626 31.537 79.0037 30.8999 81.5698 31C86.6432 31 90.4098 32.9 92.8698 36.7C94.2032 38.84 94.8698 42.2733 94.8698 47V72.7H90.8698V47C90.8698 43.2 90.3365 40.4666 89.2698 38.8C87.6698 36.14 85.0098 34.8 81.2698 34.8C79.2329 34.6971 77.2091 35.1792 75.4372 36.1891C73.6653 37.1991 72.2193 38.6949 71.2698 40.5C69.8098 43.1 69.0765 46.7666 69.0698 51.5V72.7L65.0698 72.73Z" fill="black"/>
<path d="M100.87 72.7301V31.9301H104.87V38.3301C106.04 36.0474 107.838 34.147 110.053 32.8535C112.268 31.5599 114.807 30.9272 117.37 31.0301C122.437 31.0301 126.203 32.9301 128.67 36.7301C130.003 38.8701 130.67 42.3034 130.67 47.0301V72.7301H126.67V47.0001C126.67 43.2001 126.137 40.4668 125.07 38.8001C123.47 36.1401 120.81 34.8001 117.07 34.8001C115.033 34.6973 113.009 35.1793 111.237 36.1893C109.466 37.1993 108.02 38.695 107.07 40.5001C105.61 43.1001 104.877 46.7668 104.87 51.5001V72.7001L100.87 72.7301Z" fill="black"/>
<path d="M173.55 38.8301V31.9101H177.45V72.7301H173.55V64.5501C169.977 69.9968 164.813 72.7235 158.06 72.7301C155.498 72.7775 152.954 72.2928 150.589 71.3065C148.224 70.3202 146.089 68.8538 144.32 67.0001C140.56 63.1668 138.677 58.1001 138.67 51.8001C138.67 45.6268 140.457 40.6268 144.03 36.8001C147.603 32.9735 152.27 31.0568 158.03 31.0501C164.677 31.0168 169.85 33.6101 173.55 38.8301ZM158.26 34.7301C156.228 34.7061 154.212 35.0952 152.335 35.8739C150.458 36.6526 148.758 37.8047 147.34 39.2601C144.287 42.2801 142.763 46.3568 142.77 51.4901C142.687 55.9695 144.185 60.335 147 63.8201C148.402 65.447 150.136 66.7539 152.086 67.6526C154.037 68.5513 156.157 69.0208 158.304 69.0293C160.452 69.0378 162.576 68.5852 164.533 67.7021C166.491 66.8189 168.235 65.5258 169.65 63.9101C172.449 60.3867 173.915 55.9884 173.79 51.4901C173.79 46.0968 172.197 41.9568 169.01 39.0701C166.121 36.2901 162.269 34.735 158.26 34.7301Z" fill="black"/>
<path d="M29.75 0L0 72.73H5.08L14.14 50.43L16.2 45.31L16.63 44.23L29.64 11.86L42.88 45.31H25.71V49.55H44.57L53.99 72.73H59.07L29.75 0Z" fill="black"/>
</g>
<defs>
<clipPath id="clip0_421_68">
<rect width="462.48" height="72.9" fill="white"/>
</clipPath>
</defs>
</svg>
